<?xml version="1.0" encoding="utf-8" standalone="no"?>
<!DOCTYPE svg PUBLIC "-//W3C//DTD SVG 1.1//EN"
  "http://www.w3.org/Graphics/SVG/1.1/DTD/svg11.dtd">
<svg xmlns:xlink="http://www.w3.org/1999/xlink" width="432pt" height="432pt" viewBox="0 0 432 432" xmlns="http://www.w3.org/2000/svg" version="1.1">
 <metadata>
  <rdf:RDF xmlns:dc="http://purl.org/dc/elements/1.1/" xmlns:cc="http://creativecommons.org/ns#" xmlns:rdf="http://www.w3.org/1999/02/22-rdf-syntax-ns#">
   <cc:Work>
    <dc:type rdf:resource="http://purl.org/dc/dcmitype/StillImage"/>
    <dc:date>2025-08-14T13:24:22.865443</dc:date>
    <dc:format>image/svg+xml</dc:format>
    <dc:creator>
     <cc:Agent>
      <dc:title>Matplotlib v3.10.1, https://matplotlib.org/</dc:title>
     </cc:Agent>
    </dc:creator>
   </cc:Work>
  </rdf:RDF>
 </metadata>
 <defs>
  <style type="text/css">*{stroke-linejoin: round; stroke-linecap: butt}</style>
 </defs>
 <g id="figure_1">
  <g id="patch_1">
   <path d="M 0 432 
L 432 432 
L 432 0 
L 0 0 
z
" style="fill: #ffffff"/>
  </g>
  <g id="axes_1">
   <g id="patch_2">
    <path d="M 216 65.448926 
C 216 65.448926 216 65.448926 216 65.448926 
L 216 224.42 
z
" style="fill: #ff0000; stroke: #ffffff; stroke-linejoin: miter"/>
   </g>
   <g id="patch_3">
    <path d="M 215.999993 65.448926 
C 215.999993 65.448926 215.999993 65.448926 215.999993 65.448926 
L 216 224.42 
z
" style="fill: #ffa500; stroke: #ffffff; stroke-linejoin: miter"/>
   </g>
   <g id="patch_4">
    <path d="M 215.999993 65.448926 
C 215.999993 65.448926 215.999993 65.448926 215.999993 65.448926 
L 216 224.42 
z
" style="fill: #ffff00; stroke: #ffffff; stroke-linejoin: miter"/>
   </g>
   <g id="patch_5">
    <path d="M 374.971074 224.42 
C 374.971074 203.54411 370.858979 182.871211 362.870122 163.584404 
C 354.881265 144.297596 343.171008 126.771959 328.409525 112.010475 
C 313.648041 97.248992 296.122404 85.538735 276.835596 77.549878 
C 257.548789 69.561021 236.87589 65.448926 216 65.448926 
C 195.12411 65.448926 174.451211 69.561021 155.164404 77.549878 
C 135.877596 85.538735 118.351959 97.248992 103.590475 112.010475 
C 88.828992 126.771959 77.118735 144.297596 69.129878 163.584404 
C 61.141021 182.871211 57.028926 203.54411 57.028926 224.42 
C 57.028926 245.29589 61.141021 265.968789 69.129878 285.255596 
C 77.118735 304.542404 88.828992 322.068041 103.590475 336.829525 
C 118.351959 351.591008 135.877596 363.301265 155.164404 371.290122 
C 174.451211 379.278979 195.12411 383.391074 216 383.391074 
C 236.87589 383.391074 257.548789 379.278979 276.835596 371.290122 
C 296.122404 363.301265 313.648041 351.591008 328.409525 336.829525 
C 343.171008 322.068041 354.881265 304.542404 362.870122 285.255596 
C 370.858979 265.968789 374.971074 245.29589 374.971074 224.42 
M 216 224.42 
z
" style="fill: #008000; stroke: #ffffff; stroke-linejoin: miter"/>
   </g>
   <g id="matplotlib.axis_1"/>
   <g id="matplotlib.axis_2"/>
   <g id="text_1">
    <!-- Compliant! -->
    <g transform="translate(216.000002 402.667869) scale(0.2 -0.2)">
     <defs>
      <path id="THSarabunNew-43" d="M 2349 320 
L 2426 115 
Q 2086 -45 1594 -45 
Q 973 -45 560 400 
Q 147 845 147 1530 
Q 147 2214 560 2652 
Q 973 3091 1594 3091 
Q 2086 3091 2426 2931 
L 2349 2726 
Q 2003 2874 1606 2874 
Q 1114 2874 768 2509 
Q 403 2125 403 1523 
Q 403 922 768 538 
Q 1114 173 1606 173 
Q 2003 173 2349 320 
z
" transform="scale(0.015625)"/>
      <path id="THSarabunNew-6f" d="M 2368 1082 
Q 2368 602 2067 269 
Q 1766 -64 1274 -64 
Q 781 -64 480 269 
Q 179 602 179 1082 
Q 179 1562 480 1891 
Q 781 2221 1274 2221 
Q 1766 2221 2067 1891 
Q 2368 1562 2368 1082 
z
M 2125 1082 
Q 2125 1478 1885 1744 
Q 1645 2010 1274 2010 
Q 902 2010 662 1744 
Q 422 1478 422 1082 
Q 422 685 662 416 
Q 902 147 1274 147 
Q 1645 147 1885 416 
Q 2125 685 2125 1082 
z
" transform="scale(0.015625)"/>
      <path id="THSarabunNew-6d" d="M 3514 0 
L 3264 0 
L 3264 1203 
Q 3264 1574 3113 1795 
Q 2963 2016 2675 2016 
Q 2426 2016 2237 1821 
Q 2048 1626 2048 1382 
L 2048 0 
L 1798 0 
L 1798 1318 
Q 1798 2016 1248 2016 
Q 992 2016 787 1795 
Q 582 1574 582 1318 
L 582 0 
L 333 0 
L 333 1638 
Q 333 1811 288 2176 
L 525 2176 
Q 570 2042 576 1786 
Q 826 2221 1306 2221 
Q 1747 2221 1965 1734 
Q 2221 2221 2746 2221 
Q 3104 2221 3309 1949 
Q 3514 1677 3514 1210 
L 3514 0 
z
" transform="scale(0.015625)"/>
      <path id="THSarabunNew-70" d="M 2387 1050 
Q 2387 570 2131 269 
Q 1862 -58 1408 -58 
Q 864 -58 582 403 
L 582 -1069 
L 333 -1069 
L 333 1632 
Q 333 2003 314 2163 
L 544 2163 
Q 557 1997 557 1779 
Q 858 2221 1370 2221 
Q 1837 2221 2112 1897 
Q 2387 1574 2387 1050 
z
M 2150 1056 
Q 2150 1504 1942 1757 
Q 1734 2010 1338 2010 
Q 1018 2010 800 1805 
Q 582 1600 582 1293 
L 582 928 
Q 582 576 832 352 
Q 1056 141 1363 141 
Q 1734 141 1952 403 
Q 2150 653 2150 1056 
z
" transform="scale(0.015625)"/>
      <path id="THSarabunNew-6c" d="M 1165 173 
L 1139 -45 
Q 333 -6 333 1094 
L 333 3232 
L 582 3232 
L 582 1190 
Q 582 723 666 512 
Q 794 179 1165 173 
z
" transform="scale(0.015625)"/>
      <path id="THSarabunNew-69" d="M 582 0 
L 333 0 
L 333 2176 
L 582 2176 
L 582 0 
z
M 653 2835 
Q 653 2746 595 2691 
Q 538 2637 448 2637 
Q 358 2637 304 2691 
Q 250 2746 250 2835 
Q 250 2925 304 2982 
Q 358 3040 448 3040 
Q 538 3040 595 2982 
Q 653 2925 653 2835 
z
" transform="scale(0.015625)"/>
      <path id="THSarabunNew-61" d="M 1946 0 
L 1722 -45 
L 1632 307 
Q 1338 -58 858 -58 
Q 576 -58 371 102 
Q 166 262 166 544 
Q 166 1357 1581 1357 
L 1619 1357 
L 1619 1395 
Q 1619 1606 1523 1766 
Q 1376 2022 1024 2022 
Q 800 2022 333 1875 
L 301 2106 
Q 659 2221 1043 2221 
Q 1869 2221 1869 1312 
L 1869 531 
Q 1869 262 1946 0 
z
M 1619 704 
L 1619 1139 
Q 429 1139 429 589 
Q 429 378 557 266 
Q 685 154 877 154 
Q 1382 154 1587 582 
Q 1619 653 1619 704 
z
" transform="scale(0.015625)"/>
      <path id="THSarabunNew-6e" d="M 2163 0 
L 1914 0 
L 1914 1235 
Q 1914 2016 1261 2016 
Q 998 2016 790 1795 
Q 582 1574 582 1318 
L 582 0 
L 333 0 
L 333 1638 
Q 333 1811 288 2176 
L 525 2176 
Q 570 2042 576 1786 
Q 826 2221 1312 2221 
Q 2163 2221 2163 1235 
L 2163 0 
z
" transform="scale(0.015625)"/>
      <path id="THSarabunNew-74" d="M 1344 198 
L 1370 0 
Q 1242 -58 1030 -58 
Q 749 -58 602 160 
Q 474 352 474 640 
L 474 1978 
L 38 1978 
L 38 2176 
L 474 2176 
L 474 2822 
L 723 2938 
L 723 2176 
L 1421 2176 
L 1421 1978 
L 723 1978 
L 723 646 
Q 723 160 1050 160 
Q 1248 160 1344 198 
z
" transform="scale(0.015625)"/>
      <path id="THSarabunNew-21" d="M 563 768 
L 358 768 
L 314 3040 
L 614 3040 
L 563 768 
z
M 685 179 
Q 685 90 617 26 
Q 550 -38 461 -38 
Q 371 -38 307 26 
Q 243 90 243 179 
Q 243 269 307 336 
Q 371 403 461 403 
Q 550 403 617 336 
Q 685 269 685 179 
z
" transform="scale(0.015625)"/>
     </defs>
     <use xlink:href="#THSarabunNew-43"/>
     <use xlink:href="#THSarabunNew-6f" transform="translate(40.599991 0)"/>
     <use xlink:href="#THSarabunNew-6d" transform="translate(80.399979 0)"/>
     <use xlink:href="#THSarabunNew-70" transform="translate(140.499969 0)"/>
     <use xlink:href="#THSarabunNew-6c" transform="translate(180.59996 0)"/>
     <use xlink:href="#THSarabunNew-69" transform="translate(200.599945 0)"/>
     <use xlink:href="#THSarabunNew-61" transform="translate(214.899933 0)"/>
     <use xlink:href="#THSarabunNew-6e" transform="translate(249.299927 0)"/>
     <use xlink:href="#THSarabunNew-74" transform="translate(288.299911 0)"/>
     <use xlink:href="#THSarabunNew-21" transform="translate(312.099899 0)"/>
    </g>
   </g>
   <g id="text_2">
    <!-- 4.9714 Rai (100.0%) -->
    <g transform="translate(157.546876 323.182332) scale(0.2 -0.2)">
     <defs>
      <path id="THSarabunNew-34" d="M 1498 947 
L 1498 2797 
Q 1056 2579 768 2035 
Q 493 1517 480 947 
L 1498 947 
z
M 1754 947 
L 2208 947 
L 2176 710 
L 1754 710 
L 1754 0 
L 1498 0 
L 1498 710 
L 205 710 
Q 218 1664 637 2323 
Q 1056 2982 1754 3123 
L 1754 947 
z
" transform="scale(0.015625)"/>
      <path id="THSarabunNew-2e" d="M 736 179 
Q 736 90 669 26 
Q 602 -38 512 -38 
Q 422 -38 358 26 
Q 294 90 294 179 
Q 294 269 358 336 
Q 422 403 512 403 
Q 602 403 669 336 
Q 736 269 736 179 
z
" transform="scale(0.015625)"/>
      <path id="THSarabunNew-39" d="M 2061 1952 
Q 2061 1216 1606 637 
Q 1152 58 448 -77 
L 429 109 
Q 858 230 1210 563 
Q 1606 934 1754 1446 
Q 1728 1350 1568 1242 
Q 1363 1114 1094 1114 
Q 717 1114 480 1402 
Q 243 1690 243 2093 
Q 243 2509 476 2790 
Q 710 3072 1114 3072 
Q 1568 3072 1830 2726 
Q 2061 2419 2061 1952 
z
M 1805 2093 
Q 1805 2406 1613 2630 
Q 1421 2854 1146 2854 
Q 838 2854 668 2630 
Q 499 2406 499 2093 
Q 499 1773 672 1549 
Q 845 1325 1146 1325 
Q 1421 1325 1613 1549 
Q 1805 1773 1805 2093 
z
" transform="scale(0.015625)"/>
      <path id="THSarabunNew-37" d="M 1107 0 
L 838 0 
Q 838 966 1222 1850 
Q 1312 2054 1529 2422 
Q 1747 2790 1754 2797 
L 211 2797 
L 307 3040 
L 2106 3040 
L 2054 2784 
Q 1626 2221 1366 1565 
Q 1107 909 1107 0 
z
" transform="scale(0.015625)"/>
      <path id="THSarabunNew-31" d="M 1837 0 
L 621 0 
L 621 230 
L 1101 230 
L 1101 2669 
L 621 2253 
L 480 2413 
L 1216 3059 
Q 1357 3059 1357 2816 
L 1357 230 
L 1837 230 
L 1837 0 
z
" transform="scale(0.015625)"/>
      <path id="THSarabunNew-20" transform="scale(0.015625)"/>
      <path id="THSarabunNew-52" d="M 2291 0 
L 2048 0 
Q 1875 1389 1184 1389 
L 595 1389 
L 595 0 
L 346 0 
L 346 3008 
Q 704 3078 1094 3078 
Q 1587 3072 1875 2886 
Q 2208 2669 2208 2259 
Q 2208 1690 1619 1472 
Q 1958 1286 2131 781 
Q 2214 518 2291 0 
z
M 1971 2227 
Q 1971 2861 1094 2861 
Q 742 2861 595 2816 
L 595 1587 
L 1165 1587 
Q 1542 1587 1756 1756 
Q 1971 1926 1971 2227 
z
" transform="scale(0.015625)"/>
      <path id="THSarabunNew-28" d="M 1082 -371 
L 838 -371 
Q 128 403 128 1498 
Q 128 2534 832 3405 
L 1088 3405 
Q 371 2586 371 1498 
Q 371 480 1082 -371 
z
" transform="scale(0.015625)"/>
      <path id="THSarabunNew-30" d="M 2112 1453 
Q 2112 922 1907 486 
Q 1645 -70 1158 -70 
Q 666 -70 403 486 
Q 198 915 198 1453 
Q 198 2099 422 2547 
Q 685 3066 1158 3066 
Q 1632 3066 1894 2547 
Q 2112 2099 2112 1453 
z
M 1856 1459 
Q 1856 2016 1696 2400 
Q 1504 2848 1158 2848 
Q 806 2848 614 2400 
Q 454 2022 454 1459 
Q 454 998 608 627 
Q 800 147 1158 147 
Q 1510 147 1702 627 
Q 1856 998 1856 1459 
z
" transform="scale(0.015625)"/>
      <path id="THSarabunNew-25" d="M 2899 3046 
L 1043 -58 
L 826 -58 
L 2682 3046 
L 2899 3046 
z
M 1587 2138 
Q 1587 1229 902 1229 
Q 218 1229 218 2138 
Q 218 3046 902 3046 
Q 1587 3046 1587 2138 
z
M 1357 2138 
Q 1357 2842 902 2842 
Q 448 2842 448 2138 
Q 448 1434 902 1434 
Q 1357 1434 1357 2138 
z
M 3520 890 
Q 3520 -19 2835 -19 
Q 2150 -19 2150 890 
Q 2150 1798 2835 1798 
Q 3520 1798 3520 890 
z
M 3290 890 
Q 3290 1594 2835 1594 
Q 2381 1594 2381 890 
Q 2381 186 2835 186 
Q 3290 186 3290 890 
z
" transform="scale(0.015625)"/>
      <path id="THSarabunNew-29" d="M 1082 1517 
Q 1082 454 371 -371 
L 128 -371 
Q 838 518 838 1517 
Q 838 2528 128 3405 
L 371 3405 
Q 1082 2605 1082 1517 
z
" transform="scale(0.015625)"/>
     </defs>
     <use xlink:href="#THSarabunNew-34"/>
     <use xlink:href="#THSarabunNew-2e" transform="translate(36.199997 0)"/>
     <use xlink:href="#THSarabunNew-39" transform="translate(52.399994 0)"/>
     <use xlink:href="#THSarabunNew-37" transform="translate(88.599991 0)"/>
     <use xlink:href="#THSarabunNew-31" transform="translate(124.799988 0)"/>
     <use xlink:href="#THSarabunNew-34" transform="translate(160.999985 0)"/>
     <use xlink:href="#THSarabunNew-20" transform="translate(197.199982 0)"/>
     <use xlink:href="#THSarabunNew-52" transform="translate(218.799973 0)"/>
     <use xlink:href="#THSarabunNew-61" transform="translate(256.699966 0)"/>
     <use xlink:href="#THSarabunNew-69" transform="translate(291.09996 0)"/>
     <use xlink:href="#THSarabunNew-20" transform="translate(305.399948 0)"/>
     <use xlink:href="#THSarabunNew-28" transform="translate(326.999939 0)"/>
     <use xlink:href="#THSarabunNew-31" transform="translate(345.999924 0)"/>
     <use xlink:href="#THSarabunNew-30" transform="translate(382.199921 0)"/>
     <use xlink:href="#THSarabunNew-30" transform="translate(418.399918 0)"/>
     <use xlink:href="#THSarabunNew-2e" transform="translate(454.599915 0)"/>
     <use xlink:href="#THSarabunNew-30" transform="translate(470.799911 0)"/>
     <use xlink:href="#THSarabunNew-25" transform="translate(506.999908 0)"/>
     <use xlink:href="#THSarabunNew-29" transform="translate(565.499893 0)"/>
    </g>
   </g>
   <g id="text_3">
    <!-- Risk Assessment, PIN: w1wu3q17uv -->
    <g transform="translate(68.341562 40.68) scale(0.28 -0.28)">
     <defs>
      <path id="THSarabunNew-73" d="M 1587 576 
Q 1587 301 1379 121 
Q 1171 -58 800 -58 
Q 480 -58 186 115 
L 282 320 
Q 589 154 819 154 
Q 1357 154 1357 557 
Q 1357 870 851 1024 
Q 269 1203 269 1613 
Q 269 1862 457 2041 
Q 646 2221 986 2221 
Q 1325 2221 1523 2074 
L 1421 1869 
Q 1229 2022 941 2022 
Q 736 2022 621 1913 
Q 506 1805 506 1645 
Q 506 1389 1005 1216 
Q 1587 1018 1587 576 
z
" transform="scale(0.015625)"/>
      <path id="THSarabunNew-6b" d="M 2093 6 
L 1843 -64 
L 806 1133 
L 582 915 
L 582 0 
L 333 0 
L 333 3232 
L 582 3232 
L 582 1197 
L 1664 2208 
L 1920 2157 
L 986 1274 
L 2093 6 
z
" transform="scale(0.015625)"/>
      <path id="THSarabunNew-41" d="M 2560 0 
L 2285 0 
L 1933 979 
L 621 979 
L 275 0 
L 0 0 
L 1152 3091 
L 1408 3091 
L 2560 0 
z
M 1856 1190 
L 1280 2816 
L 698 1190 
L 1856 1190 
z
" transform="scale(0.015625)"/>
      <path id="THSarabunNew-65" d="M 2074 307 
L 2093 96 
Q 1722 -58 1286 -58 
Q 787 -58 480 249 
Q 173 557 173 1030 
Q 173 1568 480 1894 
Q 787 2221 1261 2221 
Q 2176 2221 2195 1075 
L 416 1075 
Q 429 640 675 400 
Q 922 160 1312 160 
Q 1696 160 2074 307 
z
M 1958 1274 
Q 1952 1536 1811 1741 
Q 1619 2022 1229 2022 
Q 877 2022 653 1766 
Q 474 1562 429 1274 
L 1958 1274 
z
" transform="scale(0.015625)"/>
      <path id="THSarabunNew-2c" d="M 787 173 
Q 774 -173 576 -435 
Q 442 -621 282 -698 
L 192 -602 
Q 525 -378 563 -45 
Q 461 -45 387 25 
Q 314 96 314 192 
Q 314 288 384 361 
Q 454 435 550 435 
Q 653 435 720 358 
Q 787 282 787 173 
z
" transform="scale(0.015625)"/>
      <path id="THSarabunNew-50" d="M 2208 2202 
Q 2208 1722 1824 1459 
Q 1491 1235 992 1242 
Q 787 1242 595 1280 
L 595 0 
L 346 0 
L 346 3014 
Q 730 3078 1082 3078 
Q 1542 3078 1856 2867 
Q 2208 2624 2208 2202 
z
M 1971 2182 
Q 1971 2861 1075 2861 
Q 755 2861 595 2829 
L 595 1498 
Q 768 1453 1043 1453 
Q 1971 1504 1971 2182 
z
" transform="scale(0.015625)"/>
      <path id="THSarabunNew-49" d="M 595 0 
L 346 0 
L 346 3046 
L 595 3046 
L 595 0 
z
" transform="scale(0.015625)"/>
      <path id="THSarabunNew-4e" d="M 2477 0 
L 2214 0 
L 602 2694 
L 602 0 
L 346 0 
L 346 3046 
L 634 3046 
L 2234 390 
L 2234 3046 
L 2477 3046 
L 2477 0 
z
" transform="scale(0.015625)"/>
      <path id="THSarabunNew-3a" d="M 736 179 
Q 736 90 669 26 
Q 602 -38 512 -38 
Q 422 -38 358 26 
Q 294 90 294 179 
Q 294 269 358 336 
Q 422 403 512 403 
Q 602 403 669 336 
Q 736 269 736 179 
z
M 736 1811 
Q 736 1722 669 1658 
Q 602 1594 512 1594 
Q 422 1594 358 1658 
Q 294 1722 294 1811 
Q 294 1901 358 1968 
Q 422 2035 512 2035 
Q 602 2035 669 1968 
Q 736 1901 736 1811 
z
" transform="scale(0.015625)"/>
      <path id="THSarabunNew-77" d="M 3245 2176 
L 2464 0 
L 2246 0 
L 1619 1920 
L 960 0 
L 730 0 
L 19 2176 
L 282 2176 
L 858 294 
L 1510 2176 
L 1747 2176 
L 2362 294 
L 2995 2176 
L 3245 2176 
z
" transform="scale(0.015625)"/>
      <path id="THSarabunNew-75" d="M 2272 6 
L 2035 -45 
Q 1958 173 1933 378 
Q 1651 -58 1114 -58 
Q 333 -58 333 954 
L 333 2176 
L 582 2176 
L 582 998 
Q 582 160 1171 160 
Q 1446 160 1670 339 
Q 1914 544 1914 858 
L 1914 2176 
L 2163 2176 
L 2163 531 
Q 2163 294 2272 6 
z
" transform="scale(0.015625)"/>
      <path id="THSarabunNew-33" d="M 2099 1030 
Q 2099 544 1766 243 
Q 1434 -58 909 -70 
Q 486 -83 218 166 
L 326 365 
Q 563 186 947 186 
Q 1318 186 1580 435 
Q 1843 685 1843 1018 
Q 1843 1267 1689 1433 
Q 1536 1600 1299 1600 
Q 1024 1600 870 1453 
L 749 1658 
Q 992 1843 1235 2035 
Q 1600 2342 1600 2515 
Q 1600 2829 1165 2829 
Q 685 2829 448 2349 
L 269 2445 
Q 371 2726 620 2892 
Q 870 3059 1184 3059 
Q 1453 3059 1645 2915 
Q 1837 2771 1837 2522 
Q 1837 2227 1312 1830 
L 1350 1830 
Q 1690 1830 1894 1603 
Q 2099 1376 2099 1030 
z
" transform="scale(0.015625)"/>
      <path id="THSarabunNew-71" d="M 2368 -1069 
L 2118 -1069 
L 2118 403 
Q 1837 -58 1293 -58 
Q 838 -58 570 269 
Q 314 570 314 1050 
Q 314 1574 589 1897 
Q 864 2221 1331 2221 
Q 1843 2221 2144 1779 
Q 2144 1997 2157 2163 
L 2387 2163 
Q 2368 2003 2368 1632 
L 2368 -1069 
z
M 2118 928 
L 2118 1293 
Q 2118 1600 1900 1805 
Q 1683 2010 1363 2010 
Q 966 2010 758 1757 
Q 550 1504 550 1056 
Q 550 653 749 403 
Q 966 141 1338 141 
Q 1645 141 1869 352 
Q 2118 576 2118 928 
z
" transform="scale(0.015625)"/>
      <path id="THSarabunNew-76" d="M 2163 2176 
L 1184 0 
L 960 0 
L 19 2176 
L 275 2176 
L 1082 269 
L 1907 2176 
L 2163 2176 
z
" transform="scale(0.015625)"/>
     </defs>
     <use xlink:href="#THSarabunNew-52"/>
     <use xlink:href="#THSarabunNew-69" transform="translate(37.899994 0)"/>
     <use xlink:href="#THSarabunNew-73" transform="translate(52.199982 0)"/>
     <use xlink:href="#THSarabunNew-6b" transform="translate(80.399979 0)"/>
     <use xlink:href="#THSarabunNew-20" transform="translate(111.999969 0)"/>
     <use xlink:href="#THSarabunNew-41" transform="translate(133.59996 0)"/>
     <use xlink:href="#THSarabunNew-73" transform="translate(173.599945 0)"/>
     <use xlink:href="#THSarabunNew-73" transform="translate(201.799942 0)"/>
     <use xlink:href="#THSarabunNew-65" transform="translate(229.999939 0)"/>
     <use xlink:href="#THSarabunNew-73" transform="translate(267.399933 0)"/>
     <use xlink:href="#THSarabunNew-73" transform="translate(295.59993 0)"/>
     <use xlink:href="#THSarabunNew-6d" transform="translate(323.799927 0)"/>
     <use xlink:href="#THSarabunNew-65" transform="translate(383.899918 0)"/>
     <use xlink:href="#THSarabunNew-6e" transform="translate(421.299911 0)"/>
     <use xlink:href="#THSarabunNew-74" transform="translate(460.299896 0)"/>
     <use xlink:href="#THSarabunNew-2c" transform="translate(484.099884 0)"/>
     <use xlink:href="#THSarabunNew-20" transform="translate(500.299881 0)"/>
     <use xlink:href="#THSarabunNew-50" transform="translate(521.899872 0)"/>
     <use xlink:href="#THSarabunNew-49" transform="translate(559.69986 0)"/>
     <use xlink:href="#THSarabunNew-4e" transform="translate(574.399857 0)"/>
     <use xlink:href="#THSarabunNew-3a" transform="translate(618.499847 0)"/>
     <use xlink:href="#THSarabunNew-20" transform="translate(634.699844 0)"/>
     <use xlink:href="#THSarabunNew-77" transform="translate(656.299835 0)"/>
     <use xlink:href="#THSarabunNew-31" transform="translate(706.999832 0)"/>
     <use xlink:href="#THSarabunNew-77" transform="translate(743.199829 0)"/>
     <use xlink:href="#THSarabunNew-75" transform="translate(793.899826 0)"/>
     <use xlink:href="#THSarabunNew-33" transform="translate(832.899811 0)"/>
     <use xlink:href="#THSarabunNew-71" transform="translate(869.099808 0)"/>
     <use xlink:href="#THSarabunNew-31" transform="translate(909.199799 0)"/>
     <use xlink:href="#THSarabunNew-37" transform="translate(945.399796 0)"/>
     <use xlink:href="#THSarabunNew-75" transform="translate(981.599792 0)"/>
     <use xlink:href="#THSarabunNew-76" transform="translate(1020.599777 0)"/>
    </g>
   </g>
  </g>
 </g>
</svg>
